<svg xmlns="http://www.w3.org/2000/svg" width="627.728" height="423.235" viewBox="0 0 627.728 423.235"><path d="M653.7,420.5h-58c-1-2.4-2.2-5-3.4-7.8,9.4-5.1,65.5-37.2,57.9-61-6.1-18.9-29-30.6-42.1-34.8,9.5-11.6,23.6-34.7,17.5-49.7-5.9-14.3-23.5-25.1-33.8-29.7,12.7-9.9,31.8-32,25-54.5-7-22.9-33.6-34-47.9-37,1-6.7,4.6-34.2-4.5-45.1-9.4-11-23.3-9.7-31.3-6.9.7-5.1.3-8.6-1.4-10.7a5.828,5.828,0,0,0-4.6-2,21.426,21.426,0,0,0-11.8,4,45.993,45.993,0,0,0-10.2-5.4,11.616,11.616,0,0,0-1-5.8,5.035,5.035,0,0,0-3.2-2.5c-3.7-.8-7.3,2-10.2,5.4a45.283,45.283,0,0,0-17.4,3.4c-10.5,4.3-19.1,17.1-20.4,23.3-1,.3-2,.5-3,.9l-3.3-5.3h0L435.9,82h0L426,66h0l-9.8-15.8h0L406,33.9h0L396.1,18v-.1L385.7,1.2a1.463,1.463,0,0,0-1.9-.6,1.436,1.436,0,0,0-.7,1.9l6.8,18.1h0l6.8,18.1h0l6.8,18.1h0l6.2,16.6h0l6.7,17.9h0l7.1,18.9h0l2.3,6.2a132.239,132.239,0,0,0-21.6,17.7c-6.2,6.1-16.1,12.9-25.7,19.4-11.5,7.8-22.3,15.2-25.7,20.9-5.2,8.8-9.9,32.7.1,45.1a18.551,18.551,0,0,0,6.4,5.1h.1a31.9,31.9,0,0,0,8.4,2.6,39.175,39.175,0,0,0,7.1.6c7.6.2,15.8-.8,23.8-1.9,7.9-1,15.3-2,21.2-1.6,1,.1,2,.2,2.8.3a59.138,59.138,0,0,0,9.1.7c-4.6,14.9-11.6,27.6-18.3,39.9a268.962,268.962,0,0,0-14,27.9L278.8,276.4,237,236.8a1.485,1.485,0,0,0-1.4-.4c-13.3,3.7-28,7.8-42.5,11.7l-81-64a1.52,1.52,0,0,0-2,.1l-1.8-1.8a1.19,1.19,0,0,0-1.1-.4,1.382,1.382,0,0,0-1.1.6c-.7.9-1.6,2.1-2.7,3.4l-1.9-1.8a1.5,1.5,0,0,0-1.1-.4,1.606,1.606,0,0,0-1.1.5c-6.6,7.8-29.5,35.5-48.5,62.6-25.3,36-24.8,44.3-22.3,47.3.1.1.2.3.4.4l16,17.6c.1.1.1.2.2.3l.6.6,9,9.9c.1.1.1.3.2.4a5.716,5.716,0,0,0,.8.7l8.8,9.7a2.185,2.185,0,0,0,.3.5,3.631,3.631,0,0,0,.9.8l8.6,9.5.3.6a9.016,9.016,0,0,0,1,.9l8.5,9.3a4.876,4.876,0,0,0,.3.7,10.627,10.627,0,0,0,1.1.9l8.4,9.2c0,.3.2.5.4.8a3.447,3.447,0,0,0,1.3,1l8.2,9a1.8,1.8,0,0,0,.4.9,4.249,4.249,0,0,0,1.4,1.1l8.1,8.9a1.086,1.086,0,0,0,.4.9,3.656,3.656,0,0,0,1.5,1.1l17.8,19.6a1.284,1.284,0,0,0,.4,1,6.215,6.215,0,0,0,1.7,1.2l7.8,8.6v.2h-45a1.5,1.5,0,0,0,0,3h50.9c1.1.1,2.3.2,3.8.2,1.4,0,3-.1,4.8-.2H653.6a1.538,1.538,0,0,0,1.5-1.5A1.391,1.391,0,0,0,653.7,420.5ZM500.2,74.5a1.675,1.675,0,0,1,1.2,1,9.033,9.033,0,0,1,.7,3.3,43.875,43.875,0,0,0-7.5-1.6C496.6,75.3,498.6,74.1,500.2,74.5ZM447,105.6a117.829,117.829,0,0,0-18.8,9.4l-1.6-4.4,18.2-8.7ZM392.1,18.2l-1-2.7,1.5,2.5Zm1,2.8,1.1-.4,8.4,13.5-3.8,2Zm6.7,18,4.4-2.3,8.5,13.7-7.2,3.9Zm6.8,18.1,7.7-4.2,8.2,13.2L411.8,71Zm6.2,16.7,11.3-5.1,8.3,13.4-14,6.7Zm12.7,34-6-16.1,14.5-7,9.1,14.7ZM398,296.2a131.736,131.736,0,0,0-8,29.3c-16.5-4.9-42.8-9.2-61.6-9.2-3,0-5.8.1-8.3.3l-38-36.5Zm-204.9-45h0c14.5-3.9,29.2-8,42.5-11.7l80.7,77.6c-.4.1-.8.1-1.2.2l-69.2-66.1a1.433,1.433,0,0,0-1-.4h-.4c-1.9.5-4,1-6,1.5l-4.3-4.7a1.391,1.391,0,0,0-1.5-.4C143,268.8,44.3,289.8,36.6,286.7a6.069,6.069,0,0,1,.4-2.1,2.7,2.7,0,0,0,1.8,1.8c7.9,3,86-16.9,140.5-31.5a1.854,1.854,0,0,0,.7-.2C184.5,253.5,188.9,252.3,193.1,251.2ZM152,259l-11.9-9.6L152.7,234l23.2,18.7C167.6,254.9,159.6,257,152,259Zm-40.7-71.6h0l78.2,61.7c-3.3.9-6.5,1.7-9.6,2.6l-26.4-21.2a1.607,1.607,0,0,0-2.3.2l-14.7,18a1.577,1.577,0,0,0,.2,2.3l11.3,9.1c-14.1,3.7-27.1,7-38.8,9.8,3.3-4.5,7.1-9.5,11.3-14.9a1.64,1.64,0,0,0-2.6-2c-4.7,6-8.8,11.5-12.4,16.4a1.632,1.632,0,0,0-.2,1.5c-4.9,1.2-9.6,2.3-14,3.4a1.651,1.651,0,0,0-3-1c-.4.5-.5.8-.7,1-.1.2-.3.4-.5.8a.367.367,0,0,0-.1.3c-4.7,1.1-9,2.1-13,3,2.1-3.1,4.5-6.6,7.2-10.4a1.651,1.651,0,0,0-2.7-1.9c-3.6,5-6.7,9.5-9.1,13.3-4.3.9-8.2,1.7-11.6,2.4,2.5-4.9,7-11.9,13.6-21a1.651,1.651,0,0,0-2.7-1.9C61,269.5,56,277.4,53.8,282.5c-7.8,1.4-12.6,1.8-14,1.3-.1-.1-2.3-3,15.6-27.6C70.7,235,94.3,206.8,111.3,187.4Zm-4-1.7.8.8c-5,5.7-10.5,12.1-16.2,18.9C98.6,196.6,104.2,189.6,107.3,185.7ZM30.7,292.2c-1-1.3-2.4-8.3,22.5-43.7,18-25.7,39.7-52,47.3-61.1l1,.9c-9.3,11.8-27.1,34.6-42.8,56.5C30.5,284.1,33,287.1,34.4,288.7c1.2,1.4,3.7,4.4,78.1-11.1,49.6-10.4,103.5-23.2,120.2-27.2l2.6,2.9c-19.5,4.9-75.4,18.8-125.3,29-68.1,13.9-77.9,11.3-79.3,9.9ZM354.1,420.5c8.2-1.8,16.8-3.7,25.7-5.8a1.669,1.669,0,0,0,1.2-1.1,1.768,1.768,0,0,0-.3-1.6l-29.5-32.7a1.845,1.845,0,0,0-1.6-.5c-12,2.8-23.6,5.3-34.3,7.7a1.5,1.5,0,0,0-1.2,1.1,1.768,1.768,0,0,0,.3,1.6l28.2,31.3H253.2c10.7-2.3,22.3-4.9,34.3-7.6a1.649,1.649,0,1,0-.8-3.2c-12,2.8-23.6,5.3-34.3,7.7a1.7,1.7,0,0,0-1.3,2,1.609,1.609,0,0,0,1.3,1.2H182.5c.2,0,.4-.1.7-.1a1.669,1.669,0,1,0-.5-3.3c-27.2,4.3-34.4,3.3-36.2,2.5l-6.3-7a28.122,28.122,0,0,0,3,.1c5.8,0,15.1-.9,30.2-3.3a1.669,1.669,0,0,0-.5-3.3c-27.7,4.4-34.6,3.2-36.3,2.5l-16.2-17.8a31.121,31.121,0,0,0,3.2.1c5.8,0,15.1-.9,30.2-3.3a1.669,1.669,0,0,0-.5-3.3c-29,4.6-35.2,3.1-36.5,2.3l-6.2-6.8a31.121,31.121,0,0,0,3.2.1,163.129,163.129,0,0,0,21.4-1.9,1.669,1.669,0,0,0-.5-3.3c-22.4,3.1-26.9,1.6-27.8,1l-6.1-6.8c1,.1,2,.1,3.3.1,5.8,0,15.1-.9,30.2-3.3a1.669,1.669,0,0,0-.5-3.3c-32.4,5.2-36.4,2.7-36.8,2.1l-.2-.2L90.9,358c1,.1,2.1.1,3.3.1h1.5a1.666,1.666,0,0,0,1.6-1.7,1.645,1.645,0,0,0-1.6-1.6h0c-7.3.2-8.4-.9-8.5-1.1a1.38,1.38,0,0,0-.4-.3l-5.7-6.3c1,.1,2.1.1,3.4.1,5.8,0,15.1-.9,30.2-3.3a1.669,1.669,0,1,0-.5-3.3c-32.4,5.2-36.4,2.7-36.8,2.1a1,1,0,0,0-.5-.4l-5.7-6.2c1,.1,2.1.1,3.5.1,5.8,0,15.1-.9,30.2-3.3a1.669,1.669,0,1,0-.5-3.3c-32.4,5.2-36.4,2.7-36.8,2.1a2.092,2.092,0,0,0-.6-.4l-5.6-6.2c1,.1,2.2.1,3.5.1,5.8,0,15.1-.9,30.2-3.3a1.669,1.669,0,1,0-.5-3.3c-32.4,5.2-36.4,2.7-36.8,2.1a1.794,1.794,0,0,0-.7-.5L51.5,314c1,.1,2.2.1,3.5.1h.5a1.605,1.605,0,0,0,1.6-1.7,1.58,1.58,0,0,0-1.6-1.6h0c-6.4,0-7.5-1-7.6-1.1a2.177,2.177,0,0,0-.8-.5L34.7,295.5c8,.6,27.3-1,76.1-11,52.2-10.7,111-25.4,127.8-29.7h.1q3.15-.75,6-1.5L312,317.5c-3.8,1.3-8.6,4.6-13.8,9a1.227,1.227,0,0,0-1.3-.2c-20.5,5.2-61.1,15.1-102.2,24a1.7,1.7,0,0,0-1.3,2,1.6,1.6,0,0,0,1.6,1.3h.3c38.6-8.3,76.8-17.6,98.4-23-4.3,4-8.8,8.5-13.1,13.2-27.1,6.6-53.4,12.7-76.1,17.5a1.7,1.7,0,0,0-1.3,2,1.6,1.6,0,0,0,1.6,1.3h.3c21.4-4.6,46-10.3,71.5-16.4-2.4,2.7-4.8,5.4-7,8h0c-1.3,1.5-2.5,3-3.8,4.5h-.3c-18.2,4.3-35.4,8.2-51.1,11.6a1.7,1.7,0,0,0-1.3,2,1.6,1.6,0,0,0,1.6,1.3h.3c14.6-3.1,30.5-6.7,47.2-10.7-3.3,4-6.6,8.1-9.7,12-9.9,2.2-19.4,4.4-28.4,6.3a1.7,1.7,0,0,0-1.3,2,1.6,1.6,0,0,0,1.6,1.3h.3c7.8-1.7,16.1-3.5,24.6-5.4a3.039,3.039,0,0,0-.5.7,1.314,1.314,0,0,0-.3,1.2,1.445,1.445,0,0,0,.7,1l8.3,5c-8.3,1.9-16.2,3.6-23.6,5.2a1.7,1.7,0,0,0-1.3,2,1.6,1.6,0,0,0,1.6,1.3h.3c8.4-1.8,17.5-3.8,27-6l11.8,7.1q-15.6,3.6-29.7,6.6a1.7,1.7,0,0,0-1.3,2,1.6,1.6,0,0,0,1.6,1.3h.3c10.4-2.2,21.5-4.7,33.1-7.4l8.1,4.8a1.528,1.528,0,0,0,2-.4c5.6-8,14.3-20.4,20.6-29h0c5.4-7.3,7.1-9.3,7.7-9.8,3.4-3.2,39.8-3.2,43.2,0,2.7,2.5,27.7,32.6,45,53.6H354.1Zm53.6,0c-4.9-5.9-43.1-52.3-46.9-55.8-4.4-4.1-42.8-4.1-47.3,0-.4.4-1.6,1.5-7.3,9.2l-33.5-16.7c3-3.5,6-6.8,8.8-9.8a1.669,1.669,0,0,0,1.1-1.2c13.7-14.6,24.3-23.5,30.4-25.3.6-.2,1.2-.3,1.8-.5h0c1.4-.3,3-.5,4.7-.7h0c18.5-1.9,52.3,3.3,71.1,9.2h0a67.252,67.252,0,0,1,9.6,3.7c12.2,6.4,47.5,45.9,64.4,65.9a1.492,1.492,0,1,0,2.3-1.9c-17.1-20.2-52.7-60-65.3-66.6a54.976,54.976,0,0,0-8.9-3.5,128.606,128.606,0,0,1,8.5-30.8v-.1a284.21,284.21,0,0,1,14.3-28.7c7-12.7,14.2-25.9,18.8-41.4,18.6-.6,41.6-6.7,50.2-17.5a1.492,1.492,0,0,0-2.3-1.9c-8.1,10.2-31.3,16.1-49,16.4h-.1a55.518,55.518,0,0,1-10.5-.6,29.091,29.091,0,0,0-3.1-.4c-6.1-.4-13.7.5-21.7,1.6-7.9,1-16,2-23.4,1.8a64.147,64.147,0,0,1-6.7-.6c-1.3-.2-2.6-.5-3.8-.8,3.2-1.7,7.7-5.5,11.8-14a1.5,1.5,0,0,0-2.7-1.3c-5.6,11.7-11.8,13.4-13.3,13.6a16.4,16.4,0,0,1-5-4.1c-8.8-10.9-4.9-33.1.1-41.7,3-5.1,13.6-12.3,24.8-19.9,9.7-6.6,19.7-13.4,26.1-19.7a135.622,135.622,0,0,1,22.1-17.9h.1a110.58,110.58,0,0,1,21.5-10.7h.1a44.138,44.138,0,0,1,4.7-1.4h.1c8.3-1.9,22.4-.2,41.7,5a1.423,1.423,0,0,0,1.6-.5q1.5-1.95,3.6-5.1c3.6-5.4,8.6-12.8,14.8-17.4h.1c3.7-2.7,7.2-4,10.9-4a2.608,2.608,0,0,1,2.3.9c.8.9,1.8,3.6.3,10.9h0c-.2.9-.4,1.9-.7,2.9-.6,2.1-1.2,4.3-1.9,6.4a217.107,217.107,0,0,1-10.5,25.7,1.514,1.514,0,0,0,.2,1.7c13.5,14.6,11.8,50,10.2,81.2-1,20-1.9,38.8,1.2,50.6,5.5,21.1,38.1,96.1,57.5,141l3.1,7.1h0c1.2,2.8,2.3,5.4,3.4,7.9H407.7ZM373.1,173.1a1.491,1.491,0,0,1-1.1,1.8c-6.3,1.7-11,6.8-11.1,6.8a1.606,1.606,0,0,1-1.1.5,1.284,1.284,0,0,1-1-.4,1.454,1.454,0,0,1-.1-2.1c.2-.2,5.3-5.8,12.5-7.7A1.648,1.648,0,0,1,373.1,173.1ZM105.6,230.7c5.4-6.7,11.3-13.9,17.4-21.1a1.632,1.632,0,0,1,2.5,2.1c-6.1,7.3-12,14.4-17.4,21.1a1.612,1.612,0,0,1-1.3.6,1.284,1.284,0,0,1-1-.4A1.8,1.8,0,0,1,105.6,230.7ZM73.6,253c3.9-5.3,8.5-11.4,13.7-18a1.64,1.64,0,0,1,2.6,2c-5.2,6.6-9.7,12.6-13.6,17.9a1.709,1.709,0,0,1-1.3.7,1.929,1.929,0,0,1-1-.3A1.55,1.55,0,0,1,73.6,253Zm22.7-5.1c-3.5,4.5-6.6,8.7-9.4,12.5a1.709,1.709,0,0,1-1.3.7,1.93,1.93,0,0,1-1-.3,1.721,1.721,0,0,1-.4-2.3c2.8-3.8,6-8.1,9.4-12.6a1.682,1.682,0,0,1,2.7,2Zm-2.6-21.1c5.1-6.4,10.6-13.1,16.4-20a1.632,1.632,0,1,1,2.5,2.1c-5.8,6.9-11.3,13.6-16.4,19.9a1.612,1.612,0,0,1-1.3.6,1.284,1.284,0,0,1-1-.4A1.464,1.464,0,0,1,93.7,226.8Zm9.1,32c-1.8,2.4-3.6,4.8-5.2,7a1.709,1.709,0,0,1-1.3.7,1.93,1.93,0,0,1-1-.3,1.721,1.721,0,0,1-.4-2.3c1.6-2.2,3.4-4.6,5.2-7.1a1.61,1.61,0,0,1,2.3-.3A1.628,1.628,0,0,1,102.8,258.8Zm19.3-11.1c6.7-8.5,14.2-17.7,22.3-27.3a1.632,1.632,0,0,1,2.5,2.1c-8.1,9.6-15.6,18.7-22.3,27.2a1.612,1.612,0,0,1-1.3.6,1.284,1.284,0,0,1-1-.4A1.556,1.556,0,0,1,122.1,247.7Zm-19,5.3c6.8-8.8,14.8-18.9,23.8-29.8a1.632,1.632,0,0,1,2.5,2.1c-9,10.9-17,20.9-23.8,29.7a1.612,1.612,0,0,1-1.3.6,1.929,1.929,0,0,1-1-.3A1.7,1.7,0,0,1,103.1,253Zm52.2,121.9a1.617,1.617,0,0,1-1.6-1.4,1.6,1.6,0,0,1,1.3-1.9c10.3-1.8,22.1-4.1,35.3-6.9a1.628,1.628,0,1,1,.6,3.2c-13.2,2.8-25.1,5.1-35.4,6.9C155.5,374.9,155.4,374.9,155.3,374.9Zm45.6,4c-13.2,2.8-25.1,5.1-35.4,6.9h-.3a1.617,1.617,0,0,1-1.6-1.4,1.6,1.6,0,0,1,1.3-1.9c10.3-1.8,22.1-4.1,35.3-6.9a1.554,1.554,0,0,1,1.9,1.3A1.717,1.717,0,0,1,200.9,378.9Zm-36.1,17.8a1.75,1.75,0,0,1-1.4,1.9c-12.6,2-22.2,3.1-28.7,3.2h0a1.58,1.58,0,0,1-1.6-1.6,1.666,1.666,0,0,1,1.6-1.7c6.4-.1,15.9-1.2,28.3-3.2A1.667,1.667,0,0,1,164.8,396.7Zm6.6-50.5c-13.2,2.7-25.1,5.1-35.4,6.9h-.3a1.617,1.617,0,0,1-1.6-1.4,1.6,1.6,0,0,1,1.3-1.9c10.3-1.8,22.2-4.1,35.3-6.9a1.554,1.554,0,0,1,1.9,1.3A1.717,1.717,0,0,1,171.4,346.2Zm9.8,10.9c-13.2,2.8-25.2,5.1-35.4,6.9h-.3a1.617,1.617,0,0,1-1.6-1.4,1.6,1.6,0,0,1,1.3-1.9c10.2-1.8,22.1-4.1,35.3-6.9a1.554,1.554,0,0,1,1.9,1.3A1.717,1.717,0,0,1,181.2,357.1Zm50.5,52.5a1.554,1.554,0,0,1-1.3,1.9c-13.2,2.8-25.2,5.1-35.4,6.9h-.3a1.617,1.617,0,0,1-1.6-1.4,1.6,1.6,0,0,1,1.3-1.9c10.2-1.8,22.1-4.1,35.3-6.9A1.856,1.856,0,0,1,231.7,409.6Zm-11.1-9c-13.2,2.8-25.2,5.1-35.4,6.9h-.3a1.617,1.617,0,0,1-1.6-1.4,1.6,1.6,0,0,1,1.3-1.9c10.2-1.8,22.1-4.1,35.3-6.9a1.554,1.554,0,0,1,1.9,1.3A1.717,1.717,0,0,1,220.6,400.6Zm-9.9-10.9c-13.2,2.7-25.1,5.1-35.4,6.9H175a1.617,1.617,0,0,1-1.6-1.4,1.6,1.6,0,0,1,1.3-1.9c10.3-1.8,22.2-4.1,35.3-6.9a1.554,1.554,0,0,1,1.9,1.3A1.493,1.493,0,0,1,210.7,389.7Zm-66.4-90.5a1.525,1.525,0,0,1-.3-1.6,1.5,1.5,0,0,1,1.2-1.1c41-8.8,81.6-18.8,102.2-24a1.423,1.423,0,0,1,1.6.5l29.5,32.7a1.8,1.8,0,0,1,.4,1.6,1.383,1.383,0,0,1-1.2,1.1c-20.6,5.2-61.3,15.2-102.3,24h-.3a1.656,1.656,0,0,1-1.2-.5ZM86.2,309.7a1.75,1.75,0,0,1-1.4,1.9c-9.2,1.5-16.8,2.4-22.7,2.9H62a1.63,1.63,0,0,1-1.6-1.5,1.669,1.669,0,0,1,1.5-1.8c5.8-.5,13.4-1.4,22.5-2.9A1.65,1.65,0,0,1,86.2,309.7Zm153.3,17.9c15.6-3.7,31.9-7.7,47.2-11.5a1.649,1.649,0,1,1,.8,3.2c-15.3,3.8-31.6,7.8-47.2,11.5-19.7,4.7-38.3,8.9-55.1,12.5h-.3a1.6,1.6,0,0,1-1.6-1.3,1.7,1.7,0,0,1,1.3-2C201.3,336.4,219.8,332.2,239.5,327.6Zm-77.9,7.7c-13.2,2.8-25.1,5.1-35.4,6.9h-.3a1.617,1.617,0,0,1-1.6-1.4,1.6,1.6,0,0,1,1.3-1.9c10.3-1.8,22.1-4.1,35.3-6.9a1.554,1.554,0,0,1,1.9,1.3A1.717,1.717,0,0,1,161.6,335.3Zm-29.5-32.6c-13.2,2.7-25.1,5.1-35.4,6.9h-.3a1.617,1.617,0,0,1-1.6-1.4,1.6,1.6,0,0,1,1.3-1.9c10.3-1.8,22.2-4.1,35.3-6.9a1.554,1.554,0,0,1,1.9,1.3A1.717,1.717,0,0,1,132.1,302.7Zm9.8,10.8c-13.2,2.8-25.2,5.1-35.4,6.9h-.3a1.617,1.617,0,0,1-1.6-1.4,1.6,1.6,0,0,1,1.3-1.9c10.2-1.8,22.1-4.1,35.3-6.9a1.554,1.554,0,0,1,1.9,1.3C143.2,312.4,142.8,313.4,141.9,313.5Zm-16.4,39.7a1.75,1.75,0,0,1-1.4,1.9c-7.2,1.1-13.5,2-18.8,2.5h-.2a1.624,1.624,0,0,1-1.6-1.5,1.669,1.669,0,0,1,1.5-1.8c5.2-.5,11.4-1.4,18.6-2.5A1.691,1.691,0,0,1,125.5,353.2ZM116,331.3a1.617,1.617,0,0,1-1.6-1.4,1.6,1.6,0,0,1,1.3-1.9c10.3-1.8,22.1-4.1,35.3-6.9a1.628,1.628,0,1,1,.6,3.2c-13.2,2.8-25.1,5.1-35.4,6.9C116.2,331.3,116.1,331.3,116,331.3ZM441.1,151a1.456,1.456,0,0,1-1.6,1.3c-.5,0-1.2-.2-2.1-.3a45.075,45.075,0,0,0-8.5-1c1,3.9,1.1,10-3.9,12.5a5.918,5.918,0,0,1-2.9.7,5.284,5.284,0,0,1-3.2-1,7.718,7.718,0,0,1-3-7,8.335,8.335,0,0,1,5.4-6.8c5.9-2.5,12.9-1.1,16.7-.4.8.1,1.4.3,1.8.3A1.5,1.5,0,0,1,441.1,151Z" transform="translate(-27.372 -0.465)" fill="#181818"/></svg>